<svg xmlns="http://www.w3.org/2000/svg" version="1.1" xmlns:xlink="http://www.w3.org/1999/xlink" xmlns:svgjs="http://svgjs.dev/svgjs" width="100%" height="100%" viewBox="0 0 1000 600"><rect width="1000" height="600" x="0" y="0" fill="#10151d"/><g><rect width="333.3333333333333" height="333.3333333333333" rx="13.333333333333334" ry="13.333333333333334" y="222.57848934688576" fill="#a87ffb" transform="matrix(0.6238886855180462,0,0,0.6238886855180462,0,57.15436207309543)" x="200.35630798339844"/><path d="M253.684125317554 314.24515309858174L295.0865763254807 314.24515309858174Q313.789163426313 314.24515309858174 325.86852545399563 318.9718599789793Q337.9478874816782 323.69856685937685 343.81250527772704 333.15198062017197Q349.70630027674133 342.6053943809671 349.70630027674133 356.9022238340214L349.70630027674133 356.9022238340214Q349.70630027674133 368.8648770498424 345.3005426289634 376.8594306623666Q340.86560777822 384.8248070719255 334.03814228431236 389.55151395232303Q327.2106767904048 394.2782208327206 319.65378122236183 397.02087791146977L319.65378122236183 397.02087791146977L360.8228146065652 464.24515354379054L338.76484916471 464.24515354379054L302.43923147276575 402.2727744452448L272.59095283914417 402.2727744452448L272.59095283914417 464.24515354379054L253.684125317554 464.24515354379054L253.684125317554 314.24515309858174ZM294.03619701872566 330.6427411651461L294.03619701872566 330.6427411651461L272.59095283914417 330.6427411651461L272.59095283914417 386.3128444231617L295.0865763254807 386.3128444231617Q313.3515053818317 386.3128444231617 321.7545398358718 379.0477208847729Q330.15757428991196 371.8117745493495 330.15757428991196 357.7483627200185L330.15757428991196 357.7483627200185Q330.15757428991196 347.8572909147421 326.27700629551146 341.9926731186933Q322.396438301111 336.0988781196791 314.40188468858673 333.3562210409299Q306.4365082790279 330.6427411651461 294.03619701872566 330.6427411651461ZM384.3688173996567 314.24515309858174L424.0789906355892 314.24515309858174Q453.4896112247295 314.24515309858174 466.9111245888214 325.7993254728869Q480.3618151558786 337.35349784719205 480.3618151558786 358.36108398229226L480.3618151558786 358.36108398229226Q480.3618151558786 367.61025732232946 477.3273860474752 376.1300005882312Q474.26377973610647 384.62056665116756 467.34878263330256 391.3605005361789Q460.4046083275334 398.0712572182248 448.85043595322827 401.95182521262524Q437.2962635789231 405.8323932070257 420.49019467084304 405.8323932070257L420.49019467084304 405.8323932070257L403.2756449212469 405.8323932070257L403.2756449212469 464.24515354379054L384.3688173996567 464.24515354379054L384.3688173996567 314.24515309858174ZM422.3867128635951 330.4385007443882L422.3867128635951 330.4385007443882L403.2756449212469 330.4385007443882L403.2756449212469 389.6682227641847L418.3894360573329 389.6682227641847Q432.6862655103872 389.6682227641847 442.13967927118233 386.6337936557813Q451.59309303197745 383.57018734441255 456.20309110051335 376.8594306623666Q460.8422663720146 370.1194967773553 460.8422663720146 359.20722286828936L460.8422663720146 359.20722286828936Q460.8422663720146 344.7061529944771 451.59309303197745 337.5577382679499Q442.3439196919403 330.4385007443882 422.3867128635951 330.4385007443882Z " fill="#ffc26e" transform="matrix(0.6238886855180462,0,0,0.6238886855180462,0,57.15436207309543)"/><path d="M634.5554363813077 403.2603006270609L634.5554363813077 462.2970945640595L617.0229696209158 462.2970945640595L617.0229696209158 323.2007803431109L694.7556501804927 323.2007803431109L694.7556501804927 338.5958013101834L634.5554363813077 338.5958013101834L634.5554363813077 387.89233593585317L691.0489403870149 387.89233593585317L691.0489403870149 403.2603006270609L634.5554363813077 403.2603006270609ZM785.9352998448765 357.8869260017874L803.0619224672963 357.8869260017874L803.0619224672963 462.2970945640595L789.0467715693287 462.2970945640595L786.5034816380373 448.47133759714546L785.7459059138229 448.47133759714546Q782.4179839824521 453.90964904597075 777.1690664646806 457.42696490839506Q771.8930926710441 460.9442807708194 765.6701492221396 462.59471359857224Q759.447205773235 464.2451464263252 752.6290242553049 464.2451464263252L752.6290242553049 464.2451464263252Q740.156081081631 464.2451464263252 731.6874667359479 460.24081759833444Q723.1917961144 456.26354504620855 718.9169045277612 447.8760995281198Q714.6420129411224 439.5157102858959 714.6420129411224 426.25813511214284L714.6420129411224 426.25813511214284L714.6420129411224 357.8869260017874L731.958029494596 357.8869260017874L731.958029494596 425.0947152499563Q731.958029494596 437.5676584236302 737.6127911503396 443.79060187253464Q743.2675528060832 450.0135453214392 755.1452579107315 450.0135453214392L755.1452579107315 450.0135453214392Q766.8335690843261 450.0135453214392 773.5705817746618 445.63042863134126Q780.2805381891328 441.24731194124325 783.0943908790723 432.7786975955602Q785.9352998448765 424.31008324987704 785.9352998448765 412.24298421417524L785.9352998448765 412.24298421417524L785.9352998448765 357.8869260017874ZM853.332483024099 314.2451530318613L853.332483024099 462.2970945640595L836.1788041258144 462.2970945640595L836.1788041258144 314.2451530318613L853.332483024099 314.2451530318613ZM903.6030435809016 314.2451530318613L903.6030435809016 462.2970945640595L886.449364682617 462.2970945640595L886.449364682617 314.2451530318613L903.6030435809016 314.2451530318613ZM1017.9428653855562 425.0947152499563L1017.9428653855562 425.0947152499563Q1017.9428653855562 437.5676584236302 1011.9093158677053 446.2256667003669Q1005.8757663498543 454.8836749771036 994.6744681418262 459.5644107017144Q983.4731699337981 464.2451464263252 968.2675428977791 464.2451464263252L968.2675428977791 464.2451464263252Q960.4753354487161 464.2451464263252 953.3595348962731 463.460514426246Q946.24373434383 462.67588242616665 940.3995787570327 461.2148435294674Q934.5554231702355 459.75380463276804 930.091137652543 457.61635883944865L930.091137652543 457.61635883944865L930.091137652543 440.868524079136Q937.0987131015269 443.97999580358834 947.5153793094757 446.5232857348797Q957.9320455174247 449.03951939030634 969.0521748978584 449.03951939030634L969.0521748978584 449.03951939030634Q979.360616002348 449.03951939030634 986.3952477271966 446.33389180382613Q993.4028231761805 443.60120794148105 996.8930827627399 438.54168435476305Q1000.4103986251644 433.4551044921802 1000.4103986251644 426.63692297425L1000.4103986251644 426.63692297425Q1000.4103986251644 419.81874145631986 997.4883208317656 415.16506200757385Q994.566243038367 410.4843262829631 987.450442485924 406.47999745497236Q980.334641933481 402.5027249028464 967.6723048287536 398.0113831092892L967.6723048287536 398.0113831092892Q958.716677517504 394.7105174537833 952.006721103033 390.8955825568462Q945.2697084126971 387.1077039357739 940.8054228950048 382.23757428010947Q936.3140811014476 377.36744462444506 934.0684102046691 371.1174448996757Q931.8497955837553 364.8945014507712 931.8497955837553 356.7235061396009L931.8497955837553 356.7235061396009Q931.8497955837553 345.6033767591672 937.4775009636342 337.73000048250975Q943.1322626193778 329.82956792998743 953.1701409652195 325.5546763433487Q963.2080193110611 321.2527284808451 976.2491442778958 321.2527284808451L976.2491442778958 321.2527284808451Q987.7480615204367 321.2527284808451 997.2989269007121 323.3901742741645Q1006.8497922809872 325.5546763433487 1014.6419997300503 329.04493592990815L1014.6419997300503 329.04493592990815L1009.1766320053601 344.06116903487344Q1001.9796626253228 340.92264103455636 993.4839920037748 338.785195241237Q985.0153776580918 336.64774944791765 975.8703564157886 336.64774944791765L975.8703564157886 336.64774944791765Q967.1041230355927 336.64774944791765 961.2599674487954 339.19103937920903Q955.4158118619981 341.70727303463565 952.4937340685995 346.27978365578724Q949.5716562752007 350.8793505528036 949.5716562752007 356.91290007065453L949.5716562752007 356.91290007065453Q949.5716562752007 363.92047551963833 952.4937340685995 368.6012112442491Q955.4158118619981 373.2819469688599 962.0445994488746 376.96160048647306Q968.6463307598864 380.66831027995096 979.9558540713738 384.9702581424545L979.9558540713738 384.9702581424545Q992.239403313994 389.43454366014686 1000.7080176596771 394.60229235032415Q1009.1766320053601 399.7700410405014 1013.5597486954582 406.96701042053877Q1017.9428653855562 414.191036076441 1017.9428653855562 425.0947152499563ZM1078.5218670468485 450.2299955283576L1078.5218670468485 450.2299955283576Q1082.41797077138 450.2299955283576 1086.5034684269651 449.5265323558728Q1090.6160223584152 448.85012545925275 1093.1322560138417 448.0654934591734L1093.1322560138417 448.0654934591734L1093.1322560138417 461.13367470187296Q1090.3995721514966 462.48648849511306 1085.3400485647787 463.3793455986516Q1080.2805249780606 464.2451464263252 1075.59978925345 464.2451464263252L1075.59978925345 464.2451464263252Q1067.4287939422795 464.2451464263252 1060.5023873208902 461.4312937363858Q1053.6030369753655 458.5903847705816 1049.301089112862 451.5828093215977Q1045.0261975262233 444.575233872614 1045.0261975262233 431.9128967678865L1045.0261975262233 431.9128967678865L1045.0261975262233 371.1174448996757L1030.2264146281764 371.1174448996757L1030.2264146281764 362.94644958850546L1045.2155914572768 356.12826807057525L1052.033772975207 333.91506558557256L1062.152820148643 333.91506558557256L1062.152820148643 357.8869260017874L1092.3476240137625 357.8869260017874L1092.3476240137625 371.1174448996757L1062.152820148643 371.1174448996757L1062.152820148643 431.5070526299144Q1062.152820148643 441.05791801018967 1066.7523870456594 445.63042863134126Q1071.324897666811 450.2299955283576 1078.5218670468485 450.2299955283576ZM1153.5218637440805 356.12826807057525L1153.5218637440805 356.12826807057525Q1172.623594504631 356.12826807057525 1181.7686157469338 364.51571358866397Q1190.940693265102 372.8761028308879 1190.940693265102 391.193201591359L1190.940693265102 391.193201591359L1190.940693265102 462.2970945640595L1178.4677500914281 462.2970945640595L1175.1398281600573 447.4973116660126L1174.382252435843 447.4973116660126Q1169.8909106422857 453.1520733217563 1165.1290060900806 456.9399519428286Q1160.3400452620106 460.7278305639009 1154.1982706407007 462.48648849511306Q1148.0835522952552 464.2451464263252 1139.3173189150593 464.2451464263252L1139.3173189150593 464.2451464263252Q1129.9558474658377 464.2451464263252 1122.4612590512875 460.9442807708194Q1114.9666706367373 457.61635883944865 1110.6647227742337 450.7170084939241Q1106.3898311875948 443.79060187253464 1106.3898311875948 433.2657105611266L1106.3898311875948 433.2657105611266Q1106.3898311875948 417.6812956630005 1118.6463241543502 409.21268131731733Q1130.9298733969704 400.74406697163425 1156.443941537479 399.95943497155497L1156.443941537479 399.95943497155497L1174.1658022289246 399.36419690252933L1174.1658022289246 393.1412534536248Q1174.1658022289246 380.1001284867901 1168.5380968490458 375.01354862420726Q1162.8833351933022 369.9540250374892 1152.5478378129474 369.9540250374892L1152.5478378129474 369.9540250374892Q1144.3768425017772 369.9540250374892 1136.9634229148214 372.38908986532147Q1129.5770596037305 374.8241546931537 1123.1376659479074 377.93562641760593L1123.1376659479074 377.93562641760593L1117.8887484301358 365.08389538182485Q1124.7069299480659 361.3771855883469 1134.0413451214226 358.7527268294611Q1143.4028165706445 356.12826807057525 1153.5218637440805 356.12826807057525ZM1173.976408297871 411.2689582830423L1158.5813873307984 411.8371400762032Q1139.1008687081408 412.62177207628247 1131.6062802935905 418.08713980097247Q1124.1116918790403 423.52545124979775 1124.1116918790403 433.4551044921802L1124.1116918790403 433.4551044921802Q1124.1116918790403 442.2213378723762 1129.4688345002712 446.33389180382613Q1134.825977121502 450.41938945941126 1143.2134226395908 450.41938945941126L1143.2134226395908 450.41938945941126Q1156.443941537479 450.41938945941126 1165.210174917675 443.1141949759146Q1173.976408297871 435.809000492418 1173.976408297871 420.60337345639914L1173.976408297871 420.60337345639914L1173.976408297871 411.2689582830423ZM1265.1560579622546 464.2451464263252L1265.1560579622546 464.2451464263252Q1251.3303009953406 464.2451464263252 1240.5077906494198 458.5903847705816Q1229.685280303499 452.9356231148378 1223.5705619580535 441.05791801018967Q1217.4287873367434 429.18021290554145 1217.4287873367434 410.67372021401667L1217.4287873367434 410.67372021401667Q1217.4287873367434 391.38259552241266 1223.8411247167016 379.31549648671086Q1230.2805183725245 367.22134117514423 1241.2924226494993 361.59363579526536Q1252.3043269264735 355.93887413952166 1266.3194778244415 355.93887413952166L1266.3194778244415 355.93887413952166Q1274.301079204558 355.93887413952166 1281.714498791514 357.5893069672746Q1289.1008621026049 359.2397397950275 1293.7815978272156 361.59363579526536L1293.7815978272156 361.59363579526536L1288.532680309444 375.79818062428654Q1283.8519445848333 374.0395226930744 1277.6290011359288 372.49731496878064Q1271.3790014111592 370.92805096862213 1265.940689962334 370.92805096862213L1265.940689962334 370.92805096862213Q1255.4157986509258 370.92805096862213 1248.5976171329958 375.4193927621793Q1241.7794356150657 379.8836782798717 1238.4515136836949 388.64991166006763Q1235.1506480281892 397.41614504026353 1235.1506480281892 410.4843262829631L1235.1506480281892 410.4843262829631Q1235.1506480281892 422.95726945663694 1238.4515136836949 431.7235028368329Q1241.7794356150657 440.4897362170288 1248.4082232019423 444.9540217347212Q1255.0099545129538 449.4453635282784 1264.9666640312012 449.4453635282784L1264.9666640312012 449.4453635282784Q1273.5164472044785 449.4453635282784 1280.0640659637606 447.68670559706624Q1286.5846284471781 445.9280476658541 1292.0229398960032 443.41181401042746L1292.0229398960032 443.41181401042746L1292.0229398960032 458.5903847705816Q1286.7740223782316 461.32306863292655 1280.442853825868 462.7841075296259Q1274.1116852735045 464.2451464263252 1265.1560579622546 464.2451464263252ZM1333.7166610036638 314.2451530318613L1333.7166610036638 391.5719894534663Q1333.7166610036638 394.7105174537833 1333.4190419691508 399.7700410405014Q1333.148479210503 404.82956462721944 1332.9320290035844 408.5362744206973L1332.9320290035844 408.5362744206973L1333.7166610036638 408.5362744206973Q1334.8800808658502 406.96701042053877 1337.2339768660881 404.0449326271401Q1339.560816590461 401.1228548337415 1341.9958814182933 398.1196082127484Q1344.4309462461256 395.08930531589056 1346.1896041773375 393.1412534536248L1346.1896041773375 393.1412534536248L1379.4958797669092 357.8869260017874L1399.5716364585924 357.8869260017874L1357.2826772819067 402.5027249028464L1402.4937142519912 462.2970945640595L1381.849775767147 462.2970945640595L1345.594366108312 413.59579800741534L1333.7166610036638 423.9312953877698L1333.7166610036638 462.2970945640595L1316.7794323122976 462.2970945640595L1316.7794323122976 314.2451530318613L1333.7166610036638 314.2451530318613Z " fill="#25a6e9" transform="matrix(0.6238886855180462,0,0,0.6238886855180462,0,57.15436207309543)"/></g></svg>